<svg xmlns="http://www.w3.org/2000/svg" viewBox="0 0 512 512" role="img" aria-label="Bookmark PWA">
  <defs>
    <linearGradient id="bg" x1="0" x2="1" y1="0" y2="1">
      <stop offset="0%" stop-color="#0f172a" />
      <stop offset="100%" stop-color="#2563eb" />
    </linearGradient>
  </defs>
  <rect width="512" height="512" rx="112" fill="url(#bg)" />
  <rect x="92" y="92" width="328" height="328" rx="72" fill="rgba(255,255,255,0.12)" />
  <path d="M170 136h172a22 22 0 0 1 22 22v192l-108-52-108 52V158a22 22 0 0 1 22-22Z" fill="#f8fafc" />
  <path d="M182 158h148a14 14 0 0 1 14 14v124l-88-40-88 40V172a14 14 0 0 1 14-14Z" fill="#38bdf8" opacity="0.9" />
  <circle cx="352" cy="166" r="32" fill="#67e8f9" />
  <path d="M346 166l10 10 18-22" fill="none" stroke="#0f172a" stroke-width="10" stroke-linecap="round" stroke-linejoin="round" />
</svg>